<?xml version="1.0" encoding="UTF-8" standalone="no"?>
<!DOCTYPE svg PUBLIC "-//W3C//DTD SVG 1.1//EN" "http://www.w3.org/Graphics/SVG/1.1/DTD/svg11.dtd">
<svg width="100%" height="100%" viewBox="0 0 374 374" version="1.1" xmlns="http://www.w3.org/2000/svg" xmlns:xlink="http://www.w3.org/1999/xlink" xml:space="preserve" xmlns:serif="http://www.serif.com/" style="fill-rule:evenodd;clip-rule:evenodd;stroke-linejoin:round;stroke-miterlimit:2;">
    <g transform="matrix(1,0,0,1,186.776,0)">
        <path d="M0,373.551C-103.154,373.551 -186.776,289.929 -186.776,186.776L-186.776,186.775C-186.776,83.622 -103.154,0 0,0C103.153,0 186.776,83.622 186.776,186.775L186.776,186.776C186.776,289.929 103.153,373.551 0,373.551" style="fill:rgb(50,113,109);fill-rule:nonzero;"/>
    </g>
    <g transform="matrix(1,0,0,1,152.123,107.334)">
        <path d="M0,29.403L0,-23.532C0,-28.194 -3.779,-31.972 -8.436,-31.972L-26.299,-31.972C-30.956,-31.972 -34.735,-28.194 -34.735,-23.532L-34.735,61.375C-26.284,47.827 -14.27,36.731 0,29.403" style="fill:rgb(245,237,217);fill-rule:nonzero;"/>
    </g>
    <g transform="matrix(1,0,0,1,192.482,290.572)">
        <path d="M0,-150.212C-13.284,-150.212 -25.762,-146.76 -36.59,-140.707C-36.595,-140.707 -36.6,-140.702 -36.605,-140.697C-37.654,-140.111 -38.689,-139.501 -39.709,-138.862L-40.359,-138.452L-41.247,-137.875C-42.004,-137.377 -42.751,-136.87 -43.488,-136.342L-53.101,-128.214C-55.014,-126.305 -56.821,-124.289 -58.52,-122.18C-58.71,-121.941 -58.896,-121.706 -59.091,-121.467C-59.457,-120.999 -59.818,-120.52 -60.179,-120.042C-60.179,-120.042 -60.184,-120.037 -60.189,-120.032C-60.541,-119.553 -60.897,-119.07 -61.244,-118.582C-61.419,-118.333 -61.59,-118.084 -61.771,-117.835C-69.802,-106.255 -74.654,-92.308 -75.079,-77.252L-75.064,-77.252C-75.069,-77.027 -75.074,-76.798 -75.079,-76.573C-74.723,-67.293 -67.092,-59.882 -57.729,-59.882C-52.935,-59.882 -48.59,-61.825 -45.446,-64.969C-42.302,-68.113 -40.359,-72.453 -40.359,-77.252L-40.359,-75.109C-40.359,-97.399 -22.291,-115.467 0,-115.472C11.145,-115.472 21.241,-110.957 28.544,-103.653C35.848,-96.345 40.369,-86.259 40.369,-75.109L40.369,-75.104C40.369,-52.813 22.296,-34.74 0.005,-34.74L-66.658,-34.74C-71.315,-34.74 -75.094,-30.962 -75.094,-26.299L-75.094,-8.441C-75.094,-3.779 -71.315,0 -66.658,0L0.005,0C41.481,0 75.108,-33.622 75.108,-75.104L75.108,-75.109C75.108,-116.59 41.477,-150.212 0,-150.212" style="fill:rgb(245,237,217);fill-rule:nonzero;"/>
    </g>
    <g transform="matrix(1,0,0,1,242.146,74.1177)">
        <path d="M0,48.316C13.342,48.316 24.158,37.5 24.158,24.158C24.158,10.816 13.342,0 0,0C-13.342,0 -24.158,10.816 -24.158,24.158C-24.158,37.5 -13.342,48.316 0,48.316" style="fill:rgb(251,186,59);fill-rule:nonzero;"/>
    </g>
</svg>
