<?xml version="1.0" encoding="UTF-8" standalone="no"?>
<!DOCTYPE svg PUBLIC "-//W3C//DTD SVG 1.1//EN" "http://www.w3.org/Graphics/SVG/1.1/DTD/svg11.dtd">
<svg width="100%" height="100%" viewBox="0 0 494 196" version="1.1" xmlns="http://www.w3.org/2000/svg" xmlns:xlink="http://www.w3.org/1999/xlink" xml:space="preserve" xmlns:serif="http://www.serif.com/" style="fill-rule:evenodd;clip-rule:evenodd;stroke-linejoin:round;stroke-miterlimit:2;">
    <g transform="matrix(0.62473,0,0,0.62473,112.204,54.7169)">
        <path d="M0,26.658L0,-21.332C0,-25.559 -3.426,-28.985 -7.648,-28.985L-23.842,-28.985C-28.065,-28.985 -31.49,-25.559 -31.49,-21.332L-31.49,55.643C-23.829,43.361 -12.937,33.301 0,26.658" style="fill:rgb(50,113,109);fill-rule:nonzero;"/>
    </g>
    <g transform="matrix(0.62473,0,0,0.62473,177.601,115.962)">
        <path d="M0,-0.005C0,-37.612 -30.49,-68.093 -68.092,-68.093C-80.135,-68.093 -91.448,-64.964 -101.265,-59.476C-101.269,-59.476 -101.273,-59.471 -101.278,-59.467C-102.229,-58.936 -103.168,-58.382 -104.093,-57.803L-104.681,-57.431L-105.487,-56.909C-106.173,-56.457 -106.85,-55.997 -107.518,-55.519L-116.233,-48.15C-117.968,-46.419 -119.606,-44.591 -121.146,-42.679C-121.318,-42.462 -121.486,-42.25 -121.664,-42.033C-121.995,-41.608 -122.323,-41.174 -122.65,-40.741C-122.65,-40.741 -122.655,-40.736 -122.66,-40.732C-122.978,-40.298 -123.301,-39.86 -123.616,-39.418C-123.775,-39.192 -123.929,-38.966 -124.094,-38.74C-131.374,-28.242 -135.773,-15.597 -136.158,-1.948L-136.145,-1.948C-136.15,-1.744 -136.154,-1.536 -136.158,-1.333C-135.835,7.081 -128.918,13.8 -120.429,13.8C-116.083,13.8 -112.143,12.038 -109.293,9.188C-106.443,6.337 -104.681,2.403 -104.681,-1.948L-104.681,-0.005C-104.681,-20.213 -88.301,-36.594 -68.092,-36.598C-57.988,-36.598 -48.835,-32.504 -42.214,-25.883C-35.593,-19.258 -31.495,-10.114 -31.495,-0.005L-31.495,-0C-31.495,20.208 -47.879,36.593 -68.088,36.593L-128.524,36.593C-132.746,36.593 -136.172,40.019 -136.172,44.246L-136.172,60.435C-136.172,64.662 -132.746,68.088 -128.524,68.088L-68.088,68.088C-30.485,68.088 0,37.607 0,-0L0,-0.005Z" style="fill:rgb(50,113,109);fill-rule:nonzero;"/>
    </g>
    <g transform="matrix(0.62473,0,0,0.62473,395.83,89.479)">
        <path d="M0,-84.628L-16.19,-84.628C-20.417,-84.628 -23.842,-81.202 -23.842,-76.975L-23.842,-28.985C-10.905,-22.342 -0.014,-12.282 7.652,0L7.652,-76.975C7.652,-81.202 4.227,-84.628 0,-84.628" style="fill:rgb(50,113,109);fill-rule:nonzero;"/>
    </g>
    <g transform="matrix(0.62473,0,0,0.62473,395.83,93.0983)">
        <path d="M0,73.191L-60.436,73.191C-80.644,73.191 -97.029,56.806 -97.029,36.598L-97.029,36.593C-97.029,26.484 -92.931,17.34 -86.309,10.715C-79.684,4.094 -70.535,-0 -60.431,-0C-40.223,0.004 -23.842,16.385 -23.842,36.593L-23.842,34.65C-23.842,39.001 -22.081,42.935 -19.231,45.786C-16.38,48.636 -12.442,50.398 -8.095,50.398C0.394,50.398 7.316,43.679 7.639,35.265C7.635,35.062 7.63,34.854 7.626,34.65L7.635,34.65C7.355,24.745 4.957,15.367 0.881,6.953C-0.062,5.01 -1.089,3.12 -2.204,1.288C-2.766,0.354 -3.355,-0.562 -3.966,-1.465C-4.581,-2.372 -5.218,-3.266 -5.873,-4.143C-6.196,-4.576 -6.524,-5.011 -6.86,-5.435C-7.033,-5.652 -7.205,-5.864 -7.378,-6.081C-7.714,-6.506 -8.06,-6.922 -8.409,-7.334L-8.418,-7.343C-9.343,-8.436 -10.299,-9.498 -11.291,-10.529C-11.622,-10.875 -11.955,-11.215 -12.291,-11.552L-16.062,-15.048C-16.354,-15.301 -16.646,-15.548 -16.943,-15.796L-17.27,-16.066C-17.637,-16.367 -18.009,-16.668 -18.385,-16.96L-19.138,-17.545C-19.536,-17.85 -19.939,-18.146 -20.342,-18.443L-21.005,-18.921C-21.674,-19.399 -22.351,-19.864 -23.037,-20.311L-23.842,-20.833L-24.427,-21.205C-25.352,-21.784 -26.29,-22.338 -27.246,-22.869C-27.25,-22.873 -27.254,-22.878 -27.259,-22.878C-27.87,-23.218 -28.49,-23.555 -29.114,-23.878C-30.362,-24.529 -31.636,-25.139 -32.929,-25.706C-32.929,-25.706 -32.929,-25.71 -32.933,-25.71C-33.575,-25.998 -34.23,-26.272 -34.885,-26.534C-34.885,-26.534 -34.885,-26.538 -34.889,-26.538C-42.776,-29.733 -51.398,-31.495 -60.431,-31.495C-98.034,-31.495 -128.524,-1.014 -128.524,36.593L-128.524,36.598C-128.524,74.205 -98.038,104.686 -60.436,104.686L0,104.686C4.227,104.686 7.652,101.26 7.652,97.033L7.652,80.844C7.652,76.617 4.227,73.191 0,73.191" style="fill:rgb(50,113,109);fill-rule:nonzero;"/>
    </g>
    <g transform="matrix(0.62473,0,0,0.62473,207.826,99.4668)">
        <path d="M0,63.045L0,-23.802C0,-28.012 -3.416,-31.447 -7.645,-31.447L-23.839,-31.447C-28.068,-31.447 -31.484,-28.012 -31.484,-23.802L-31.484,27.555L-31.465,51.132L-31.465,54.401C-31.465,59.629 -34.674,61.776 -37.643,63.045C-39.983,64.045 -42.382,64.799 -45.226,67.643C-48.07,70.487 -49.824,74.42 -49.824,78.759C-49.824,83.117 -48.07,87.032 -45.226,89.894C-42.382,92.737 -38.45,94.492 -34.11,94.492L-31.428,94.492C-28.179,94.492 -25.039,93.993 -22.085,93.07C-21.106,92.756 -20.146,92.405 -19.204,92.017C-17.542,91.316 -15.954,90.485 -14.459,89.506C-12.575,88.305 -10.802,86.884 -9.215,85.277C-8.624,84.686 -8.051,84.077 -7.516,83.431C-7.239,83.117 -6.98,82.784 -6.722,82.452C-6.205,81.806 -5.706,81.123 -5.244,80.421C-5.004,80.07 -4.783,79.719 -4.561,79.35C-4.137,78.63 -3.73,77.891 -3.342,77.134C-2.789,76.082 -2.327,74.974 -1.902,73.847C-1.201,71.927 -0.683,69.914 -0.37,67.828C-0.129,66.276 0,64.67 0,63.045" style="fill:rgb(50,113,109);fill-rule:nonzero;"/>
    </g>
    <g transform="matrix(0.62473,0,0,0.62473,312.416,93.0971)">
        <path d="M0,73.193L-4.304,73.193L-4.304,73.241C-8.435,73.241 -11.767,69.976 -11.92,65.883L-11.92,35.553C-12.198,16.996 -19.916,0.229 -32.214,-11.884C-44.512,-24.016 -61.389,-31.495 -80.021,-31.495C-98.819,-31.495 -115.825,-23.869 -128.16,-11.552C-140.255,0.543 -147.807,17.162 -148.084,35.553L-148.066,61.534L-148.066,65.597C-148.066,69.825 -151.482,73.241 -155.711,73.241L-155.711,73.278C-155.711,85.65 -160.918,96.821 -169.264,104.688L-148.066,104.688C-139.369,104.688 -131.502,101.179 -125.815,95.473C-120.128,89.786 -116.601,81.938 -116.601,73.241L-116.601,36.292C-116.435,16.22 -100.111,0.007 -80.021,0.007C-69.902,0.007 -60.761,4.107 -54.133,10.717C-47.522,17.346 -43.422,26.487 -43.422,36.606L-43.422,68.146C-43.422,68.174 -43.415,68.199 -43.414,68.227L-43.414,73.241C-43.414,74.866 -43.285,76.472 -43.045,78.024C-42.731,80.11 -42.214,82.123 -41.512,84.043C-41.087,85.17 -40.626,86.278 -40.072,87.33C-39.684,88.087 -39.278,88.826 -38.853,89.546C-38.632,89.915 -38.41,90.266 -38.17,90.617C-37.708,91.319 -37.21,92.002 -36.693,92.648C-36.434,92.98 -36.176,93.313 -35.899,93.627C-35.363,94.273 -34.791,94.882 -34.2,95.473C-32.612,97.08 -30.839,98.502 -28.956,99.702C-27.46,100.681 -25.872,101.512 -24.21,102.213C-23.268,102.601 -22.308,102.952 -21.329,103.266C-18.375,104.189 -15.236,104.688 -11.986,104.688L0,104.688C4.226,104.688 7.652,101.262 7.652,97.035L7.652,80.846C7.652,76.619 4.226,73.193 0,73.193" style="fill:rgb(50,113,109);fill-rule:nonzero;"/>
    </g>
    <g transform="matrix(0.62473,0,0,0.62473,197.991,46.0565)">
        <path d="M0,43.803C12.096,43.803 21.901,33.998 21.901,21.902C21.901,9.806 12.096,0 0,0C-12.096,0 -21.901,9.806 -21.901,21.902C-21.901,33.998 -12.096,43.803 0,43.803" style="fill:rgb(251,186,59);fill-rule:nonzero;"/>
    </g>
</svg>
