<?xml version="1.0" encoding="UTF-8" standalone="no"?>
<!DOCTYPE svg PUBLIC "-//W3C//DTD SVG 1.1//EN" "http://www.w3.org/Graphics/SVG/1.1/DTD/svg11.dtd">
<svg width="100%" height="100%" viewBox="0 0 487 278" version="1.1" xmlns="http://www.w3.org/2000/svg" xmlns:xlink="http://www.w3.org/1999/xlink" xml:space="preserve" xmlns:serif="http://www.serif.com/" style="fill-rule:evenodd;clip-rule:evenodd;stroke-linejoin:round;stroke-miterlimit:2;">
    <g transform="matrix(-1,0,0,1,1282.58,0)">
        <path d="M1282.58,56.511L1282.58,220.515C1282.58,251.704 1257.26,277.026 1226.07,277.026L853.013,277.026C821.824,277.026 796.502,251.704 796.502,220.515L796.502,56.511C796.502,25.322 821.824,0 853.013,0L1226.07,0C1257.26,0 1282.58,25.322 1282.58,56.511Z" style="fill:rgb(50,113,109);"/>
    </g>
    <g transform="matrix(1.2893,0,0,1.2893,75.7662,81.104)">
        <path d="M0,16.032L0,-12.829C0,-15.371 -2.06,-17.432 -4.6,-17.432L-14.339,-17.432C-16.878,-17.432 -18.938,-15.371 -18.938,-12.829L-18.938,33.464C-14.331,26.077 -7.78,20.027 0,16.032" style="fill:rgb(245,237,217);fill-rule:nonzero;"/>
    </g>
    <g transform="matrix(1.2893,0,0,1.2893,51.3593,157.115)">
        <path d="M0,-1.168L-0.008,-1.168L-0.008,0C-0.008,-0.266 -0.005,-0.532 0,-0.798C-0.003,-0.841 -0.003,-0.881 -0.005,-0.923C-0.003,-1.006 -0.003,-1.086 0,-1.168" style="fill:rgb(245,237,217);fill-rule:nonzero;"/>
    </g>
    <g transform="matrix(1.2893,0,0,1.2893,156.935,157.119)">
        <path d="M0,-0.003C0,-22.62 -18.337,-40.951 -40.951,-40.951C-48.194,-40.951 -54.997,-39.069 -60.901,-35.769C-60.903,-35.769 -60.906,-35.766 -60.909,-35.763C-61.481,-35.444 -62.045,-35.111 -62.602,-34.763L-62.956,-34.539L-63.44,-34.225C-63.853,-33.954 -64.26,-33.677 -64.662,-33.389L-69.903,-28.957C-70.946,-27.917 -71.931,-26.817 -72.857,-25.668C-72.961,-25.537 -73.063,-25.409 -73.169,-25.279C-73.369,-25.023 -73.566,-24.762 -73.763,-24.502C-73.763,-24.502 -73.765,-24.499 -73.768,-24.496C-73.96,-24.235 -74.154,-23.972 -74.343,-23.706C-74.439,-23.57 -74.532,-23.434 -74.63,-23.298C-79.009,-16.985 -81.655,-9.38 -81.886,-1.171L-81.878,-1.171C-81.881,-1.049 -81.884,-0.924 -81.886,-0.801C-81.692,4.259 -77.532,8.299 -72.426,8.299C-69.813,8.299 -67.443,7.24 -65.729,5.526C-64.015,3.811 -62.956,1.445 -62.956,-1.171L-62.956,-0.003C-62.956,-12.156 -53.105,-22.008 -40.951,-22.01C-34.874,-22.01 -29.37,-19.548 -25.388,-15.566C-21.406,-11.582 -18.941,-6.082 -18.941,-0.003L-18.941,0C-18.941,12.153 -28.795,22.007 -40.948,22.007L-77.295,22.007C-79.834,22.007 -81.894,24.067 -81.894,26.61L-81.894,36.346C-81.894,38.888 -79.834,40.948 -77.295,40.948L-40.948,40.948C-18.334,40.948 0,22.617 0,0L0,-0.003Z" style="fill:rgb(245,237,217);fill-rule:nonzero;"/>
    </g>
    <g transform="matrix(1.2893,0,0,1.2893,427.793,124.25)">
        <path d="M0,-50.896L-9.737,-50.896C-12.279,-50.896 -14.339,-48.836 -14.339,-46.294L-14.339,-17.432C-6.558,-13.437 -0.008,-7.387 4.602,0L4.602,-46.294C4.602,-48.836 2.542,-50.896 0,-50.896" style="fill:rgb(245,237,217);fill-rule:nonzero;"/>
    </g>
    <g transform="matrix(1.2893,0,0,1.2893,427.793,128.74)">
        <path d="M0,44.018L-36.346,44.018C-48.5,44.018 -58.354,34.164 -58.354,22.011L-58.354,22.008C-58.354,15.928 -55.889,10.429 -51.907,6.445C-47.922,2.463 -42.42,0.001 -36.344,0.001C-24.19,0.003 -14.339,9.854 -14.339,22.008L-14.339,20.84C-14.339,23.456 -13.28,25.822 -11.565,27.536C-9.851,29.251 -7.482,30.31 -4.868,30.31C0.237,30.31 4.4,26.269 4.594,21.209C4.592,21.087 4.589,20.962 4.586,20.84L4.592,20.84C4.424,14.882 2.981,9.242 0.53,4.182C-0.037,3.014 -0.655,1.877 -1.325,0.775C-1.664,0.213 -2.018,-0.338 -2.385,-0.88C-2.755,-1.426 -3.138,-1.964 -3.532,-2.491C-3.726,-2.752 -3.923,-3.013 -4.126,-3.268C-4.229,-3.399 -4.333,-3.526 -4.437,-3.657C-4.639,-3.912 -4.847,-4.163 -5.057,-4.41L-5.063,-4.415C-5.619,-5.073 -6.194,-5.711 -6.79,-6.332C-6.99,-6.539 -7.19,-6.744 -7.392,-6.947L-9.66,-9.049C-9.835,-9.201 -10.011,-9.35 -10.189,-9.499L-10.386,-9.662C-10.607,-9.843 -10.831,-10.024 -11.057,-10.199L-11.509,-10.551C-11.749,-10.734 -11.991,-10.913 -12.234,-11.091L-12.633,-11.378C-13.035,-11.666 -13.442,-11.945 -13.855,-12.214L-14.339,-12.528L-14.69,-12.752C-15.246,-13.101 -15.811,-13.433 -16.386,-13.753C-16.388,-13.755 -16.391,-13.758 -16.394,-13.758C-16.761,-13.963 -17.134,-14.165 -17.509,-14.36C-18.26,-14.751 -19.026,-15.118 -19.803,-15.459C-19.803,-15.459 -19.803,-15.462 -19.806,-15.462C-20.192,-15.635 -20.586,-15.8 -20.98,-15.957C-20.98,-15.957 -20.98,-15.959 -20.983,-15.959C-25.726,-17.881 -30.911,-18.941 -36.344,-18.941C-58.958,-18.941 -77.295,-0.609 -77.295,22.008L-77.295,22.011C-77.295,44.628 -58.961,62.959 -36.346,62.959L0,62.959C2.542,62.959 4.602,60.899 4.602,58.357L4.602,48.62C4.602,46.078 2.542,44.018 0,44.018" style="fill:rgb(245,237,217);fill-rule:nonzero;"/>
    </g>
    <g transform="matrix(1.2893,0,0,1.2893,194.449,136.645)">
        <path d="M0,37.916L0,-14.314C0,-16.846 -2.055,-18.912 -4.598,-18.912L-14.337,-18.912C-16.88,-18.912 -18.934,-16.846 -18.934,-14.314L-18.934,16.572L-18.923,31.353L-18.923,33.319C-18.923,35.862 -20.978,37.916 -23.521,37.916C-26.131,37.916 -28.496,38.971 -30.206,40.681C-31.916,42.391 -32.971,44.757 -32.971,47.367C-32.971,49.987 -31.916,52.342 -30.206,54.063C-28.496,55.773 -26.131,56.828 -23.521,56.828L-18.901,56.828C-16.947,56.828 -15.059,56.528 -13.282,55.973C-12.693,55.784 -12.116,55.573 -11.549,55.34C-10.55,54.918 -9.595,54.418 -8.695,53.83C-7.563,53.108 -6.497,52.253 -5.542,51.287C-5.186,50.931 -4.842,50.565 -4.52,50.176C-4.353,49.987 -4.198,49.787 -4.042,49.588C-3.731,49.199 -3.432,48.788 -3.154,48.366C-3.01,48.155 -2.876,47.944 -2.743,47.722C-2.488,47.289 -2.243,46.845 -2.01,46.389C-1.677,45.756 -1.4,45.09 -1.144,44.412C-0.722,43.258 -0.411,42.047 -0.222,40.792C-0.078,39.859 0,38.893 0,37.916" style="fill:rgb(245,237,217);fill-rule:nonzero;"/>
    </g>
    <g transform="matrix(1.2893,0,0,1.2893,182.243,70.355)">
        <path d="M0,26.343C7.274,26.343 13.172,20.446 13.172,13.171C13.172,5.897 7.274,0 0,0C-7.274,0 -13.172,5.897 -13.172,13.171C-13.172,20.446 -7.274,26.343 0,26.343" style="fill:rgb(251,186,59);fill-rule:nonzero;"/>
    </g>
    <g transform="matrix(1.2893,0,0,1.2893,324.263,128.739)">
        <path d="M0,44.019L-2.589,44.019L-2.589,44.048C-5.073,44.048 -7.077,42.084 -7.169,39.623L-7.169,21.382C-7.336,10.222 -11.978,0.138 -19.374,-7.147C-26.77,-14.443 -36.92,-18.941 -48.125,-18.941C-59.43,-18.941 -69.658,-14.354 -77.076,-6.947C-84.35,0.327 -88.892,10.322 -89.058,21.382L-89.048,37.007L-89.048,39.45L-89.047,39.45C-89.047,41.994 -91.102,44.048 -93.645,44.048L-93.645,44.07C-93.645,51.511 -96.777,58.229 -101.796,62.96L-89.047,62.96C-83.817,62.96 -79.086,60.85 -75.666,57.419C-72.245,53.998 -70.124,49.278 -70.124,44.048L-70.124,21.826C-70.024,9.755 -60.207,0.005 -48.125,0.005C-42.039,0.005 -36.542,2.47 -32.556,6.446C-28.58,10.433 -26.115,15.93 -26.115,22.015L-26.115,40.984C-26.115,41 -26.11,41.016 -26.11,41.032L-26.11,44.048C-26.11,45.025 -26.032,45.991 -25.887,46.924C-25.699,48.179 -25.388,49.39 -24.965,50.544C-24.71,51.222 -24.432,51.888 -24.099,52.521C-23.866,52.976 -23.622,53.421 -23.366,53.854C-23.233,54.076 -23.1,54.287 -22.956,54.498C-22.678,54.92 -22.378,55.331 -22.067,55.719C-21.912,55.919 -21.756,56.119 -21.59,56.308C-21.268,56.697 -20.923,57.063 -20.568,57.419C-19.613,58.385 -18.547,59.24 -17.414,59.962C-16.515,60.55 -15.56,61.05 -14.56,61.472C-13.994,61.705 -13.416,61.916 -12.828,62.105C-11.051,62.66 -9.163,62.96 -7.209,62.96L0,62.96C2.542,62.96 4.602,60.9 4.602,58.358L4.602,48.621C4.602,46.08 2.542,44.019 0,44.019" style="fill:rgb(245,237,217);fill-rule:nonzero;"/>
    </g>
</svg>
