<?xml version="1.0" encoding="UTF-8" standalone="no"?>
<!DOCTYPE svg PUBLIC "-//W3C//DTD SVG 1.1//EN" "http://www.w3.org/Graphics/SVG/1.1/DTD/svg11.dtd">
<svg width="100%" height="100%" viewBox="0 0 745 356" version="1.1" xmlns="http://www.w3.org/2000/svg" xmlns:xlink="http://www.w3.org/1999/xlink" xml:space="preserve" xmlns:serif="http://www.serif.com/" style="fill-rule:evenodd;clip-rule:evenodd;">
    <g id="Artboard1" transform="matrix(1,0,0,1,-31,-37)">
        <rect x="31" y="37" width="745" height="356" style="fill:none;"/>
        <clipPath id="_clip1">
            <rect x="31" y="37" width="745" height="356"/>
        </clipPath>
        <g clip-path="url(#_clip1)">
            <g>
                <rect x="16" y="100.8" width="808" height="451" style="fill:white;fill-opacity:0;"/>
                <g transform="matrix(1,0,0,0.600946,0,40.2247)">
                    <path d="M198,551.8L198,100.8" style="fill:none;fill-rule:nonzero;stroke:rgb(153,153,153);stroke-width:1px;"/>
                </g>
                <g transform="matrix(1,0,0,0.600946,0,40.2247)">
                    <path d="M257.2,551.8L257.2,100.8" style="fill:none;fill-rule:nonzero;stroke:rgb(221,221,221);stroke-width:1px;stroke-dasharray:3,2;"/>
                </g>
                <g transform="matrix(1,0,0,0.600946,0,40.2247)">
                    <path d="M316.5,551.8L316.5,100.8" style="fill:none;fill-rule:nonzero;stroke:rgb(221,221,221);stroke-width:1px;stroke-dasharray:3,2;"/>
                </g>
                <g transform="matrix(1,0,0,0.600946,0,40.2247)">
                    <path d="M375.8,551.8L375.8,100.8" style="fill:none;fill-rule:nonzero;stroke:rgb(221,221,221);stroke-width:1px;stroke-dasharray:3,2;"/>
                </g>
                <g transform="matrix(1,0,0,0.600946,0,40.2247)">
                    <path d="M435,551.8L435,100.8" style="fill:none;fill-rule:nonzero;stroke:rgb(221,221,221);stroke-width:1px;stroke-dasharray:3,2;"/>
                </g>
                <g transform="matrix(1,0,0,0.600946,0,40.2247)">
                    <path d="M494.3,551.8L494.3,100.8" style="fill:none;fill-rule:nonzero;stroke:rgb(221,221,221);stroke-width:1px;stroke-dasharray:3,2;"/>
                </g>
                <g transform="matrix(1,0,0,0.327297,0,67.8084)">
                    <path d="M553.5,551.8L553.5,100.8" style="fill:none;fill-rule:nonzero;stroke:rgb(221,221,221);stroke-width:1px;stroke-dasharray:3,2;"/>
                </g>
                <g transform="matrix(1,0,0,0.327297,0,67.8084)">
                    <path d="M612.8,551.8L612.8,100.8" style="fill:none;fill-rule:nonzero;stroke:rgb(221,221,221);stroke-width:1px;stroke-dasharray:3,2;"/>
                </g>
                <g transform="matrix(1,0,0,0.327297,0,67.8084)">
                    <path d="M672.1,551.8L672.1,100.8" style="fill:none;fill-rule:nonzero;stroke:rgb(221,221,221);stroke-width:1px;stroke-dasharray:3,2;"/>
                </g>
                <g transform="matrix(1,0,0,0.327297,0,67.8084)">
                    <path d="M731.3,551.8L731.3,100.8" style="fill:none;fill-rule:nonzero;stroke:rgb(221,221,221);stroke-width:1px;stroke-dasharray:3,2;"/>
                </g>
                <g transform="matrix(1,0,0,1,193,112.074)">
                    <text x="-145.868px" y="0px" style="font-family:'IBMPlexSans', 'IBM Plex Sans', sans-serif;font-size:13.5px;fill:rgb(85,85,85);">Cardio<tspan x="-106.745px -100.224px " y="0px 0px ">va</tspan>scular diseases</text>
                </g>
                <g transform="matrix(1,0,0,1,198,102.255)">
                    <rect x="0" y="0" width="550" height="11.639" style="fill:rgb(251,186,59);"/>
                </g>
                <g transform="matrix(0.898075,0,0,0.898075,704.887,112.626)">
                    <g transform="matrix(13.5,0,0,13.5,47.034,0)">
                    </g>
                    <text x="0px" y="0px" style="font-family:'IBMPlexSans', 'IBM Plex Sans', sans-serif;font-size:13.5px;fill:rgb(68,37,39);">18.56M</text>
                </g>
                <g transform="matrix(1,0,0,1,193,126.623)">
                    <text x="-48.911px" y="0px" style="font-family:'IBMPlexSans', 'IBM Plex Sans', sans-serif;font-size:13.5px;fill:rgb(85,85,85);">Cancers</text>
                </g>
                <g transform="matrix(1,0,0,1,198,116.803)">
                    <rect x="0" y="0" width="298.6" height="11.639" style="fill:rgb(251,186,59);"/>
                </g>
                <g transform="matrix(1,0,0,1,501.6,126.623)">
                    <g transform="matrix(13.5,0,0,13.5,47.034,0)">
                    </g>
                    <text x="0px" y="0px" style="font-family:'IBMPlexSans', 'IBM Plex Sans', sans-serif;font-size:13.5px;fill:rgb(91,91,91);stroke:white;stroke-width:3px;stroke-linecap:round;stroke-linejoin:round;">10.08M</text>
                </g>
                <g transform="matrix(1,0,0,1,501.6,126.623)">
                    <g transform="matrix(13.5,0,0,13.5,47.034,0)">
                    </g>
                    <text x="0px" y="0px" style="font-family:'IBMPlexSans', 'IBM Plex Sans', sans-serif;font-size:13.5px;fill:rgb(91,91,91);">10.08M</text>
                </g>
                <g transform="matrix(1,0,0,1,193,141.171)">
                    <text x="-125.955px" y="0px" style="font-family:'IBMPlexSans', 'IBM Plex Sans', sans-serif;font-size:13.5px;fill:rgb(85,85,85);">R<tspan x="-117.518px " y="0px ">e</tspan>spirat<tspan x="-75.533px -67.973px -62.883px " y="0px 0px 0px ">ory</tspan> diseases</text>
                </g>
                <g transform="matrix(1,0,0,1,198,131.352)">
                    <rect x="0" y="0" width="117.7" height="11.639" style="fill:rgb(251,186,59);"/>
                </g>
                <g transform="matrix(1,0,0,1,320.7,141.171)">
                    <g transform="matrix(13.5,0,0,13.5,38.934,0)">
                    </g>
                    <text x="0px" y="0px" style="font-family:'IBMPlexSans', 'IBM Plex Sans', sans-serif;font-size:13.5px;fill:rgb(91,91,91);stroke:white;stroke-width:3px;stroke-linecap:round;stroke-linejoin:round;">3.97M</text>
                </g>
                <g transform="matrix(1,0,0,1,320.7,141.171)">
                    <g transform="matrix(13.5,0,0,13.5,38.934,0)">
                    </g>
                    <text x="0px" y="0px" style="font-family:'IBMPlexSans', 'IBM Plex Sans', sans-serif;font-size:13.5px;fill:rgb(91,91,91);">3.97M</text>
                </g>
                <g transform="matrix(1,0,0,1,193,155.719)">
                    <text x="-111.578px" y="0px" style="font-family:'IBMPlexSans', 'IBM Plex Sans', sans-serif;font-size:13.5px;fill:rgb(85,85,85);">Diges<tspan x="-78.206px " y="0px ">t</tspan>iv<tspan x="-63.558px " y="0px ">e</tspan> diseases</text>
                </g>
                <g transform="matrix(1,0,0,1,198,145.9)">
                    <rect x="0" y="0" width="75.8" height="11.639" style="fill:rgb(251,186,59);"/>
                </g>
                <g transform="matrix(1,0,0,1,278.8,155.719)">
                    <g transform="matrix(13.5,0,0,13.5,38.934,0)">
                    </g>
                    <text x="0px" y="0px" style="font-family:'IBMPlexSans', 'IBM Plex Sans', sans-serif;font-size:13.5px;fill:rgb(91,91,91);stroke:white;stroke-width:3px;stroke-linecap:round;stroke-linejoin:round;">2.56M</text>
                </g>
                <g transform="matrix(1,0,0,1,278.8,155.719)">
                    <g transform="matrix(13.5,0,0,13.5,38.934,0)">
                    </g>
                    <text x="0px" y="0px" style="font-family:'IBMPlexSans', 'IBM Plex Sans', sans-serif;font-size:13.5px;fill:rgb(91,91,91);">2.56M</text>
                </g>
                <g transform="matrix(1,0,0,1,193,170.268)">
                    <text x="-168.899px" y="0px" style="font-family:'IBMPlexSans', 'IBM Plex Sans', sans-serif;font-size:13.5px;fill:rgb(85,85,85);">L<tspan x="-162.27px -154.778px -144.477px " y="0px 0px 0px ">owe</tspan>r respir<tspan x="-93.947px " y="0px ">a</tspan>tory infections</text>
                </g>
                <g transform="matrix(1,0,0,1,198,160.448)">
                    <rect x="0" y="0" width="73.9" height="11.639" style="fill:rgb(251,186,59);"/>
                </g>
                <g transform="matrix(1,0,0,1,276.9,170.268)">
                    <g transform="matrix(13.5,0,0,13.5,38.934,0)">
                    </g>
                    <text x="0px" y="0px" style="font-family:'IBMPlexSans', 'IBM Plex Sans', sans-serif;font-size:13.5px;fill:rgb(91,91,91);stroke:white;stroke-width:3px;stroke-linecap:round;stroke-linejoin:round;">2.49M</text>
                </g>
                <g transform="matrix(1,0,0,1,276.9,170.268)">
                    <g transform="matrix(13.5,0,0,13.5,38.934,0)">
                    </g>
                    <text x="0px" y="0px" style="font-family:'IBMPlexSans', 'IBM Plex Sans', sans-serif;font-size:13.5px;fill:rgb(91,91,91);">2.49M</text>
                </g>
                <g transform="matrix(1,0,0,1,193,184.816)">
                    <text x="-115.182px" y="0px" style="font-family:'IBMPlexSans', 'IBM Plex Sans', sans-serif;font-size:13.5px;fill:rgb(85,85,85);">Neonatal disorders</text>
                </g>
                <g transform="matrix(1,0,0,1,198,174.997)">
                    <rect x="0" y="0" width="55.8" height="11.639" style="fill:rgb(251,186,59);"/>
                </g>
                <g transform="matrix(1,0,0,1,258.8,184.816)">
                    <g transform="matrix(13.5,0,0,13.5,38.934,0)">
                    </g>
                    <text x="0px" y="0px" style="font-family:'IBMPlexSans', 'IBM Plex Sans', sans-serif;font-size:13.5px;fill:rgb(91,91,91);stroke:white;stroke-width:3px;stroke-linecap:round;stroke-linejoin:round;">1.88M</text>
                </g>
                <g transform="matrix(1,0,0,1,258.8,184.816)">
                    <g transform="matrix(13.5,0,0,13.5,38.934,0)">
                    </g>
                    <text x="0px" y="0px" style="font-family:'IBMPlexSans', 'IBM Plex Sans', sans-serif;font-size:13.5px;fill:rgb(91,91,91);">1.88M</text>
                </g>
                <g transform="matrix(1,0,0,1,193,199.365)">
                    <text x="-58.658px" y="0px" style="font-family:'IBMPlexSans', 'IBM Plex Sans', sans-serif;font-size:13.5px;fill:rgb(85,85,85);">Dementia</text>
                </g>
                <g transform="matrix(1,0,0,1,198,189.545)">
                    <rect x="0" y="0" width="48.1" height="11.639" style="fill:rgb(251,186,59);"/>
                </g>
                <g transform="matrix(1,0,0,1,251.1,199.365)">
                    <g transform="matrix(13.5,0,0,13.5,38.934,0)">
                    </g>
                    <text x="0px" y="0px" style="font-family:'IBMPlexSans', 'IBM Plex Sans', sans-serif;font-size:13.5px;fill:rgb(91,91,91);stroke:white;stroke-width:3px;stroke-linecap:round;stroke-linejoin:round;">1.62M</text>
                </g>
                <g transform="matrix(1,0,0,1,251.1,199.365)">
                    <g transform="matrix(13.5,0,0,13.5,38.934,0)">
                    </g>
                    <text x="0px" y="0px" style="font-family:'IBMPlexSans', 'IBM Plex Sans', sans-serif;font-size:13.5px;fill:rgb(91,91,91);">1.62M</text>
                </g>
                <g transform="matrix(1,0,0,1,193,213.913)">
                    <text x="-53.555px" y="0px" style="font-family:'IBMPlexSans', 'IBM Plex Sans', sans-serif;font-size:13.5px;fill:rgb(85,85,85);">Diabetes</text>
                </g>
                <g transform="matrix(1,0,0,1,198,204.094)">
                    <rect x="0" y="0" width="45.9" height="11.639" style="fill:rgb(251,186,59);"/>
                </g>
                <g transform="matrix(1,0,0,1,248.9,213.913)">
                    <g transform="matrix(13.5,0,0,13.5,38.934,0)">
                    </g>
                    <text x="0px" y="0px" style="font-family:'IBMPlexSans', 'IBM Plex Sans', sans-serif;font-size:13.5px;fill:rgb(91,91,91);stroke:white;stroke-width:3px;stroke-linecap:round;stroke-linejoin:round;">1.55M</text>
                </g>
                <g transform="matrix(1,0,0,1,248.9,213.913)">
                    <g transform="matrix(13.5,0,0,13.5,38.934,0)">
                    </g>
                    <text x="0px" y="0px" style="font-family:'IBMPlexSans', 'IBM Plex Sans', sans-serif;font-size:13.5px;fill:rgb(91,91,91);">1.55M</text>
                </g>
                <g transform="matrix(1,0,0,1,193,228.461)">
                    <text x="-111.659px" y="0px" style="font-family:'IBMPlexSans', 'IBM Plex Sans', sans-serif;font-size:13.5px;fill:rgb(85,85,85);">Diarrheal diseases</text>
                </g>
                <g transform="matrix(1,0,0,1,198,218.642)">
                    <rect x="0" y="0" width="45.4" height="11.639" style="fill:rgb(251,186,59);"/>
                </g>
                <g transform="matrix(1,0,0,1,248.4,228.461)">
                    <g transform="matrix(13.5,0,0,13.5,38.934,0)">
                    </g>
                    <text x="0px" y="0px" style="font-family:'IBMPlexSans', 'IBM Plex Sans', sans-serif;font-size:13.5px;fill:rgb(91,91,91);stroke:white;stroke-width:3px;stroke-linecap:round;stroke-linejoin:round;">1.53M</text>
                </g>
                <g transform="matrix(1,0,0,1,248.4,228.461)">
                    <g transform="matrix(13.5,0,0,13.5,38.934,0)">
                    </g>
                    <text x="0px" y="0px" style="font-family:'IBMPlexSans', 'IBM Plex Sans', sans-serif;font-size:13.5px;fill:rgb(91,91,91);">1.53M</text>
                </g>
                <g transform="matrix(1,0,0,1,193,243.01)">
                    <text x="-85.185px" y="0px" style="font-family:'IBMPlexSans', 'IBM Plex Sans', sans-serif;font-size:13.5px;fill:rgb(85,85,85);">Liv<tspan x="-68.513px " y="0px ">e</tspan>r diseases</text>
                </g>
                <g transform="matrix(1,0,0,1,198,233.19)">
                    <rect x="0" y="0" width="43.6" height="11.639" style="fill:rgb(251,186,59);"/>
                </g>
                <g transform="matrix(1,0,0,1,246.6,243.01)">
                    <g transform="matrix(13.5,0,0,13.5,38.934,0)">
                    </g>
                    <text x="0px" y="0px" style="font-family:'IBMPlexSans', 'IBM Plex Sans', sans-serif;font-size:13.5px;fill:rgb(91,91,91);stroke:white;stroke-width:3px;stroke-linecap:round;stroke-linejoin:round;">1.47M</text>
                </g>
                <g transform="matrix(1,0,0,1,246.6,243.01)">
                    <g transform="matrix(13.5,0,0,13.5,38.934,0)">
                    </g>
                    <text x="0px" y="0px" style="font-family:'IBMPlexSans', 'IBM Plex Sans', sans-serif;font-size:13.5px;fill:rgb(91,91,91);">1.47M</text>
                </g>
                <g transform="matrix(1,0,0,1,193,257.558)">
                    <text x="-97.659px" y="0px" style="font-family:'IBMPlexSans', 'IBM Plex Sans', sans-serif;font-size:13.5px;fill:rgb(85,85,85);">Kidney diseases</text>
                </g>
                <g transform="matrix(1,0,0,1,198,247.739)">
                    <rect x="0" y="0" width="42.3" height="11.639" style="fill:rgb(251,186,59);"/>
                </g>
                <g transform="matrix(1,0,0,1,245.3,257.558)">
                    <g transform="matrix(13.5,0,0,13.5,38.934,0)">
                    </g>
                    <text x="0px" y="0px" style="font-family:'IBMPlexSans', 'IBM Plex Sans', sans-serif;font-size:13.5px;fill:rgb(91,91,91);stroke:white;stroke-width:3px;stroke-linecap:round;stroke-linejoin:round;">1.43M</text>
                </g>
                <g transform="matrix(1,0,0,1,245.3,257.558)">
                    <g transform="matrix(13.5,0,0,13.5,38.934,0)">
                    </g>
                    <text x="0px" y="0px" style="font-family:'IBMPlexSans', 'IBM Plex Sans', sans-serif;font-size:13.5px;fill:rgb(91,91,91);">1.43M</text>
                </g>
                <g transform="matrix(1,0,0,1,193,272.106)">
                    <text x="-78.624px" y="0px" style="font-family:'IBMPlexSans', 'IBM Plex Sans', sans-serif;font-size:13.5px;fill:rgb(85,85,85);fill-opacity:0.25;">R<tspan x="-70.187px " y="0px ">o</tspan>ad injuries</text>
                </g>
                <g transform="matrix(1,0,0,1,198,262.287)">
                    <rect x="0" y="0" width="35.5" height="11.639" style="fill:rgb(251,186,59);fill-opacity:0.13;"/>
                </g>
                <g transform="matrix(1,0,0,1,238.5,272.106)">
                    <g transform="matrix(13.5,0,0,13.5,30.834,0)">
                    </g>
                    <text x="0px" y="0px" style="font-family:'IBMPlexSans', 'IBM Plex Sans', sans-serif;font-size:13.5px;fill:rgb(91,91,91);stroke:white;stroke-width:3px;stroke-linecap:round;stroke-linejoin:round;">1.2M</text>
                </g>
                <g transform="matrix(1,0,0,1,238.5,272.106)">
                    <g transform="matrix(13.5,0,0,13.5,30.834,0)">
                    </g>
                    <text x="0px" y="0px" style="font-family:'IBMPlexSans', 'IBM Plex Sans', sans-serif;font-size:13.5px;fill:rgb(91,91,91);fill-opacity:0.25;">1.2M</text>
                </g>
                <g transform="matrix(1,0,0,1,193,286.655)">
                    <text x="-77.058px" y="0px" style="font-family:'IBMPlexSans', 'IBM Plex Sans', sans-serif;font-size:13.5px;fill:rgb(85,85,85);">T<tspan x="-70.011px " y="0px ">u</tspan>berculosis</text>
                </g>
                <g transform="matrix(1,0,0,1,198,276.835)">
                    <rect x="0" y="0" width="34.9" height="11.639" style="fill:rgb(251,186,59);"/>
                </g>
                <g transform="matrix(1,0,0,1,237.9,286.655)">
                    <g transform="matrix(13.5,0,0,13.5,38.934,0)">
                    </g>
                    <text x="0px" y="0px" style="font-family:'IBMPlexSans', 'IBM Plex Sans', sans-serif;font-size:13.5px;fill:rgb(91,91,91);stroke:white;stroke-width:3px;stroke-linecap:round;stroke-linejoin:round;">1.18M</text>
                </g>
                <g transform="matrix(1,0,0,1,237.9,286.655)">
                    <g transform="matrix(13.5,0,0,13.5,38.934,0)">
                    </g>
                    <text x="0px" y="0px" style="font-family:'IBMPlexSans', 'IBM Plex Sans', sans-serif;font-size:13.5px;fill:rgb(91,91,91);">1.18M</text>
                </g>
                <g transform="matrix(1,0,0,1,193,301.203)">
                    <text x="-58.01px" y="0px" style="font-family:'IBMPlexSans', 'IBM Plex Sans', sans-serif;font-size:13.5px;fill:rgb(85,85,85);">HIV<tspan x="-35.519px -30.956px " y="0px 0px ">/A</tspan>IDS</text>
                </g>
                <g transform="matrix(1,0,0,1,198,291.384)">
                    <rect x="0" y="0" width="25.6" height="11.639" style="fill:rgb(251,186,59);"/>
                </g>
                <g transform="matrix(1,0,0,1,228.6,301.203)">
                    <text x="0px" y="0px" style="font-family:'IBMPlexSans', 'IBM Plex Sans', sans-serif;font-size:13.5px;fill:rgb(91,91,91);stroke:white;stroke-width:3px;stroke-linecap:round;stroke-linejoin:round;">863,837</text>
                </g>
                <g transform="matrix(1,0,0,1,228.6,301.203)">
                    <text x="0px" y="0px" style="font-family:'IBMPlexSans', 'IBM Plex Sans', sans-serif;font-size:13.5px;fill:rgb(91,91,91);">863,837</text>
                </g>
                <g transform="matrix(1,0,0,1,193,315.752)">
                    <text x="-44.293px" y="0px" style="font-family:'IBMPlexSans', 'IBM Plex Sans', sans-serif;font-size:13.5px;fill:rgb(85,85,85);fill-opacity:0.25;">Suicide</text>
                </g>
                <g transform="matrix(1,0,0,1,198,305.932)">
                    <rect x="0" y="0" width="22.5" height="11.639" style="fill:rgb(251,186,59);fill-opacity:0.13;"/>
                </g>
                <g transform="matrix(1,0,0,1,225.5,315.752)">
                    <text x="0px" y="0px" style="font-family:'IBMPlexSans', 'IBM Plex Sans', sans-serif;font-size:13.5px;fill:rgb(91,91,91);stroke:white;stroke-width:3px;stroke-linecap:round;stroke-linejoin:round;">759,028</text>
                </g>
                <g transform="matrix(1,0,0,1,225.5,315.752)">
                    <text x="0px" y="0px" style="font-family:'IBMPlexSans', 'IBM Plex Sans', sans-serif;font-size:13.5px;fill:rgb(91,91,91);fill-opacity:0.25;">759,028</text>
                </g>
                <g transform="matrix(1,0,0,1,193,330.3)">
                    <text x="-44.591px" y="0px" style="font-family:'IBMPlexSans', 'IBM Plex Sans', sans-serif;font-size:13.5px;fill:rgb(85,85,85);">Malaria</text>
                </g>
                <g transform="matrix(1,0,0,1,198,320.481)">
                    <rect x="0" y="0" width="19" height="11.639" style="fill:rgb(251,186,59);"/>
                </g>
                <g transform="matrix(0.612564,0,0,1,613.545,347.373)">
                    <rect x="0" y="0" width="19" height="11.639" style="fill:rgb(251,186,59);"/>
                </g>
                <g transform="matrix(1,0,0,1,222,330.3)">
                    <text x="0px" y="0px" style="font-family:'IBMPlexSans', 'IBM Plex Sans', sans-serif;font-size:13.5px;fill:rgb(91,91,91);stroke:white;stroke-width:3px;stroke-linecap:round;stroke-linejoin:round;">643,381</text>
                </g>
                <g transform="matrix(1,0,0,1,222,330.3)">
                    <text x="0px" y="0px" style="font-family:'IBMPlexSans', 'IBM Plex Sans', sans-serif;font-size:13.5px;fill:rgb(91,91,91);">643,381</text>
                </g>
                <g transform="matrix(1,0,0,1,193,344.848)">
                    <text x="-57.672px" y="0px" style="font-family:'IBMPlexSans', 'IBM Plex Sans', sans-serif;font-size:13.5px;fill:rgb(85,85,85);fill-opacity:0.25;">Homicide</text>
                </g>
                <g transform="matrix(1,0,0,1,198,335.029)">
                    <rect x="0" y="0" width="12.3" height="11.639" style="fill:rgb(251,186,59);fill-opacity:0.13;"/>
                </g>
                <g transform="matrix(0.946237,0,0,0.946497,613.545,363.368)">
                    <rect x="0" y="0" width="12.3" height="11.639" style="fill:rgb(251,186,59);fill-opacity:0.13;"/>
                </g>
                <g transform="matrix(1,0,0,1,215.3,344.848)">
                    <text x="0px" y="0px" style="font-family:'IBMPlexSans', 'IBM Plex Sans', sans-serif;font-size:13.5px;fill:rgb(91,91,91);stroke:white;stroke-width:3px;stroke-linecap:round;stroke-linejoin:round;">415,180</text>
                </g>
                <g transform="matrix(1,0,0,1,215.3,344.848)">
                    <text x="0px" y="0px" style="font-family:'IBMPlexSans', 'IBM Plex Sans', sans-serif;font-size:13.5px;fill:rgb(91,91,91);fill-opacity:0.25;">415,180</text>
                </g>
                <g transform="matrix(1,0,0,1,193,359.397)">
                    <text x="-119.381px" y="0px" style="font-family:'IBMPlexSans', 'IBM Plex Sans', sans-serif;font-size:13.5px;fill:rgb(85,85,85);">P<tspan x="-111.334px " y="0px ">a</tspan>rkinson<tspan x="-59.413px " y="0px ">&apos;</tspan>s disease</text>
                </g>
                <g transform="matrix(1,0,0,1,745.487,357.406)">
                    <g transform="matrix(13.5,0,0,13.5,16.956,0)">
                    </g>
                    <text x="-115.695px" y="0px" style="font-family:'IBMPlexSans', 'IBM Plex Sans', sans-serif;font-size:13.5px;fill:rgb(85,85,85);">Causes in<tspan x="-57.753px -51.219px -43.659px -40.122px " y="0px 0px 0px 0px ">volv</tspan>ing IDP<tspan x="10.381px " y="0px ">s</tspan></text>
                </g>
                <g transform="matrix(1,0,0,1,683.752,372.642)">
                    <g transform="matrix(13.5,0,0,13.5,5.535,0)">
                    </g>
                    <text x="-54.392px" y="0px" style="font-family:'IBMPlexSans', 'IBM Plex Sans', sans-serif;font-size:13.5px;fill:rgb(85,85,85);">Unrelat<tspan x="-9.707px " y="0px ">e</tspan>d</text>
                </g>
                <g transform="matrix(1,0,0,1,198,349.577)">
                    <rect x="0" y="0" width="10.7" height="11.639" style="fill:rgb(251,186,59);"/>
                </g>
                <g transform="matrix(1,0,0,1,213.7,359.397)">
                    <text x="0px" y="0px" style="font-family:'IBMPlexSans', 'IBM Plex Sans', sans-serif;font-size:13.5px;fill:rgb(91,91,91);stroke:white;stroke-width:3px;stroke-linecap:round;stroke-linejoin:round;">362,907</text>
                </g>
                <g transform="matrix(1,0,0,1,213.7,359.397)">
                    <text x="0px" y="0px" style="font-family:'IBMPlexSans', 'IBM Plex Sans', sans-serif;font-size:13.5px;fill:rgb(91,91,91);">362,907</text>
                </g>
                <g transform="matrix(1,0,0,0.594494,0,40.875)">
                    <path d="M198,551.8L198,100.8" style="fill:none;fill-rule:nonzero;stroke:rgb(153,153,153);stroke-width:1px;"/>
                </g>
            </g>
            <g transform="matrix(1,0,0,1,-683.497,-150.968)">
                <g transform="matrix(30,0,0,30,1328.2,219.364)">
                </g>
                <text x="863.142px" y="219.364px" style="font-family:'IBMPlexSans', 'IBM Plex Sans', sans-serif;font-size:30px;fill:rgb(29,28,31);">L<tspan x="877.872px " y="219.364px ">e</tspan>ading causes o<tspan x="1092.76px " y="219.364px ">f</tspan> death (annual<tspan x="1295.32px 1303.18px " y="219.364px 219.364px ">ly</tspan>)</text>
            </g>
        </g>
    </g>
</svg>
